# xmcd CD database file
#
# Track frame offsets:
#	150
#	21622
#	37209
#	53264
#	74744
#	99675
#	123052
#	159187
#	187506
#	205948
#	232660
#	263164
#
# Disc length: 3933 seconds
#
# Revision: 0
# Processed by: cddbd v1.5.2PL0 Copyright (c) Steve Scherf et al.
# Submitted via: CDex 1.70beta2
#
DISCID=970f5b0c
DTITLE=Sonora Big Band - Por Cádiz
DYEAR=1900
DGENRE=Jazz
TTITLE0=Intro Carnaval Suite
TTITLE1=Hay quien dice
TTITLE2=Carnaval Febrero
TTITLE3=Los Duros Antiguos
TTITLE4=Güito (Tanguillos)
TTITLE5=Dime que si (Bulerías)
TTITLE6=Tango del Garraf
TTITLE7=Noche en el Rio
TTITLE8=Malecón de Cádiz
TTITLE9=Guantanamera
TTITLE10=Bella en Lisboa
TTITLE11=Habaneras de Cádiz
EXTD=
EXTT0=
EXTT1=
EXTT2=
EXTT3=
EXTT4=
EXTT5=
EXTT6=
EXTT7=
EXTT8=
EXTT9=
EXTT10=
EXTT11=
PLAYORDER=
